<?xml version="1.0" encoding="UTF-8"?>
<svg width="24" height="24" viewBox="0 0 24 24" fill="none" xmlns="http://www.w3.org/2000/svg">
  
  <path d="M12 2C6.477 2 2 6.477 2 12c0 5.523 4.477 10 10 10s10-4.477 10-10c0-5.523-4.477-10-10-10zm0 18c-4.418 0-8-3.582-8-8s3.582-8 8-8 8 3.582 8 8-3.582 8-8 8z" fill="#07c160"/>
  <path d="M9.5 11c-1.381 0-2.5-1.119-2.5-2.5S8.119 6 9.5 6s2.5 1.119 2.5 2.5S10.881 11 9.5 11zm5 0c-1.381 0-2.5-1.119-2.5-2.5S13.119 6 14.5 6s2.5 1.119 2.5 2.5S15.881 11 14.5 11z" fill="white"/>
  <path d="M9 13h6v2H9z" fill="white"/>

</svg>